HIERARCHY
ROOT Hips
{
    OFFSET 0.000000 0.000000 0.000000
    CHANNELS 6 Xposition Yposition Zposition Zrotation Xrotation Yrotation
    JOINT Spine
    {
        OFFSET -0.000000 7.583482 0.000000
        CHANNELS 3 Zrotation Xrotation Yrotation
        JOINT Spine1
        {
            OFFSET -0.000000 19.647881 0.000000
            CHANNELS 3 Zrotation Xrotation Yrotation
            JOINT Neck
            {
                OFFSET -0.000000 19.567190 1.778835
                CHANNELS 3 Zrotation Xrotation Yrotation
                JOINT Head
                {
                    OFFSET -0.000000 12.947408 -1.849630
                    CHANNELS 3 Zrotation Xrotation Yrotation
                    End Site
                    {
                        OFFSET -0.000000 23.120371 0.000000
                    }
                }
            }
            JOINT LeftShoulder
            {
                OFFSET 3.632882 16.008181 -0.342244
                CHANNELS 3 Zrotation Xrotation Yrotation
                JOINT LeftArm
                {
                    OFFSET 15.804684 0.000000 0.000000
                    CHANNELS 3 Zrotation Xrotation Yrotation
                    JOINT LeftForeArm
                    {
                        OFFSET 25.677923 0.000000 0.000000
                        CHANNELS 3 Zrotation Xrotation Yrotation
                        JOINT LeftHand
                        {
                            OFFSET 26.158810 0.000000 0.000000
                            CHANNELS 3 Zrotation Xrotation Yrotation
                            End Site
                            {
                                OFFSET 13.872223 0.000000 0.000000
                            }
                        }
                    }
                }
            }
            JOINT RightShoulder
            {
                OFFSET -3.700243 16.008181 -0.342244
                CHANNELS 3 Zrotation Xrotation Yrotation
                JOINT RightArm
                {
                    OFFSET -15.804684 0.000000 0.000000
                    CHANNELS 3 Zrotation Xrotation Yrotation
                    JOINT RightForeArm
                    {
                        OFFSET -25.677923 0.000000 0.000000
                        CHANNELS 3 Zrotation Xrotation Yrotation
                        JOINT RightHand
                        {
                            OFFSET -26.158810 0.000000 0.000000
                            CHANNELS 3 Zrotation Xrotation Yrotation
                            End Site
                            {
                                OFFSET -13.872223 0.000000 0.000000
                            }
                        }
                    }
                }
            }
        }
    }
    JOINT LeftUpLeg
    {
        OFFSET 9.248149 0.000000 0.000000
        CHANNELS 3 Zrotation Xrotation Yrotation
        JOINT LeftLeg
        {
            OFFSET -0.000000 -43.254459 0.000000
            CHANNELS 3 Zrotation Xrotation Yrotation
            JOINT LeftFoot
            {
                OFFSET -0.000000 -33.301838 0.000000
                CHANNELS 3 Zrotation Xrotation Yrotation
                JOINT LeftToeBase
                {
                    OFFSET -0.000000 -6.011296 13.872223
                    CHANNELS 3 Zrotation Xrotation Yrotation
                    End Site
                    {
                        OFFSET -0.000000 0.000000 3.699259
                    }
                }
            }
        }
    }
    JOINT RightUpLeg
    {
        OFFSET -9.248149 0.000000 0.000000
        CHANNELS 3 Zrotation Xrotation Yrotation
        JOINT RightLeg
        {
            OFFSET -0.000000 -43.254459 0.000000
            CHANNELS 3 Zrotation Xrotation Yrotation
            JOINT RightFoot
            {
                OFFSET -0.000000 -33.301838 0.000000
                CHANNELS 3 Zrotation Xrotation Yrotation
                JOINT RightToeBase
                {
                    OFFSET -0.000000 -6.011296 13.872223
                    CHANNELS 3 Zrotation Xrotation Yrotation
                    End Site
                    {
                        OFFSET -0.000000 0.000000 3.699259
                    }
                }
            }
        }
    }
}
MOTION
Frames:    12
Frame Time:    0.010000
-36.938053    73.719086    -20.445129    0.629177    -3.095227    169.177719    5.158695    -4.486315    -0.485580    2.356786    27.269745    -1.259558    -8.978219    15.217758    -0.811779    4.969957    -19.955273    0.790356    16.841614    -15.487225    -22.057009    14.446767    14.874534    -42.141201    -5.833557    -50.632153    -53.621273    26.369736    -51.216991    8.616996    -28.068178    -13.446869    10.546914    -28.767899    18.357565    65.081039    -32.660194    -63.922024    22.395353    -26.753483    -56.853046    -31.583084    -6.433540    -26.533203    -1.987634    -1.190966    65.335785    -11.433821    41.650032    -25.799465    15.607273    0.000000    0.000000    0.000000    -9.254861    -45.126213    -17.986528    8.093826    29.421412    6.809961    21.510670    -10.303646    -24.120644    0.000000    0.000000    0.000000    
-36.907925    73.645363    -20.843353    0.578417    -3.117191    169.343552    5.148270    -4.633780    -0.536775    2.393953    27.408741    -1.329143    -9.041930    15.119555    -0.863899    5.055501    -19.939041    0.771149    16.859930    -15.552914    -22.151209    14.415610    14.833851    -42.007721    -6.008507    -50.658432    -53.762730    26.519001    -51.298428    8.606627    -28.149223    -13.425875    10.435387    -28.219564    18.114758    64.862335    -32.233959    -63.418011    22.986242    -26.334368    -56.284302    -31.327950    -6.391228    -26.307648    -1.727735    -1.202812    65.498817    -11.448494    41.613869    -26.178961    15.520902    0.000000    0.000000    0.000000    -8.602180    -45.033791    -17.531479    7.646936    27.481884    5.480958    20.890570    -9.098590    -22.968330    0.000000    0.000000    0.000000    
-36.882927    73.565063    -21.254385    0.481643    -3.104780    169.562653    5.105287    -4.725235    -0.602611    2.362667    27.475876    -1.391065    -9.022604    15.041989    -0.914145    5.110222    -19.893255    0.740358    16.901226    -15.619961    -22.210802    14.460032    14.910719    -41.987545    -5.981615    -50.707756    -53.798019    26.447069    -51.319977    8.765903    -28.167953    -13.424228    10.359203    -28.011652    18.073866    64.750961    -31.840979    -63.694252    23.341345    -25.832548    -56.767876    -30.817120    -6.404065    -26.064606    -1.457700    -0.763464    66.021584    -11.832639    41.281624    -26.946756    14.757097    0.000000    0.000000    0.000000    -8.092842    -44.930248    -17.139585    7.225596    25.853064    5.100824    20.384218    -8.704903    -22.675747    0.000000    0.000000    0.000000    
-36.823273    73.485153    -21.656990    0.439568    -3.118042    169.797379    5.075747    -4.729465    -0.669379    2.371414    27.347561    -1.456121    -8.955864    15.223862    -0.929081    5.059574    -20.069857    0.700432    16.922939    -15.445525    -22.300821    14.609337    14.803394    -42.000248    -5.855260    -50.699104    -53.654346    26.392050    -51.279205    8.691362    -28.150875    -13.402597    10.351426    -28.582457    18.285002    64.988052    -32.634533    -64.007233    22.334190    -25.605722    -57.273514    -30.723694    -6.315351    -25.943100    -1.047634    -0.561751    66.379601    -11.985913    41.072929    -27.215305    14.406961    0.000000    0.000000    0.000000    -7.482970    -44.847233    -16.602032    6.812114    24.482841    5.553671    19.958120    -8.784682    -23.291035    0.000000    0.000000    0.000000    
-36.773449    73.398544    -22.067450    0.355545    -3.178815    170.002533    5.023223    -4.829150    -0.730610    2.374550    27.297598    -1.519291    -8.909343    15.264450    -0.957831    4.995088    -20.062002    0.646242    16.871403    -15.548402    -22.411129    14.572134    14.894609    -41.996841    -5.909281    -50.687130    -53.713272    26.423796    -51.286545    8.683172    -28.088520    -13.369807    10.287801    -28.362839    18.221807    64.912216    -32.678013    -63.182457    22.487982    -26.695518    -55.926975    -31.574549    -6.233789    -25.770704    -0.698130    -0.640335    66.609642    -11.859411    40.988667    -27.674950    14.148293    0.000000    0.000000    0.000000    -6.989557    -44.753029    -15.879691    6.680383    23.186838    5.853086    19.664946    -8.908946    -24.075451    0.000000    0.000000    0.000000    
-36.726688    73.317162    -22.477213    0.295601    -3.222681    170.271454    5.018582    -4.954152    -0.830764    2.351963    27.349976    -1.620319    -8.865953    15.199292    -0.969665    4.952691    -20.013399    0.623728    16.907499    -15.520374    -22.433401    14.524645    14.749721    -41.982903    -6.218830    -50.813034    -53.912128    26.009331    -51.606892    8.205586    -28.069040    -13.478735    10.256988    -28.288040    18.478876    64.689674    -32.251167    -63.397583    23.205976    -27.063570    -56.027855    -31.816341    -6.188346    -25.571266    -0.288577    -0.083267    66.652763    -12.575641    40.954124    -28.167240    13.959801    0.000000    0.000000    0.000000    -6.572272    -44.845539    -15.288839    6.462260    22.451176    5.757482    19.729958    -8.802595    -24.524523    0.000000    0.000000    0.000000    
-36.681732    73.233971    -22.917276    0.214220    -3.242032    170.526093    4.978377    -5.010231    -0.941639    2.364272    27.282606    -1.733458    -8.661107    15.316253    -0.945486    4.611660    -20.106045    0.534508    16.893118    -15.586411    -22.448011    14.378270    14.737426    -42.109909    -5.889895    -50.634285    -53.575649    26.249296    -51.251354    8.547371    -28.121428    -13.391820    10.252514    -27.605961    18.171452    64.559486    -31.727823    -62.999660    23.811737    -26.196358    -55.723186    -31.258545    -6.136474    -25.328625    0.016219    -0.310190    66.853027    -12.256698    41.024010    -28.535759    13.889795    0.000000    0.000000    0.000000    -6.240317    -45.020405    -14.679959    6.324500    22.127480    5.428629    20.037762    -8.779807    -24.819883    0.000000    0.000000    0.000000    
-36.626453    73.150291    -23.349245    0.115909    -3.284181    170.787766    4.877923    -5.212932    -0.999531    2.446843    27.481285    -1.820148    -8.681306    15.171115    -1.017310    4.662017    -20.012234    0.483858    16.896282    -15.726708    -22.584074    14.245089    14.676364    -42.043991    -5.971221    -50.629463    -53.637180    26.271044    -51.276585    8.528881    -28.165466    -13.486570    10.094533    -28.940002    18.833828    64.800514    -33.109341    -63.797081    22.379025    -27.308828    -56.466267    -32.194263    -6.047285    -25.176353    0.267342    -0.860017    67.189667    -11.824702    40.796253    -28.786900    13.574793    0.000000    0.000000    0.000000    -5.945450    -45.073368    -14.111723    6.311098    21.734049    6.253375    20.110950    -9.364674    -25.942162    0.000000    0.000000    0.000000    
-36.570526    73.059036    -23.788498    0.030108    -3.324454    171.054535    4.816785    -5.245993    -1.109788    2.466265    27.344877    -1.930615    -8.772259    15.224569    -0.999455    4.753466    -19.926825    0.524067    16.881227    -15.601800    -22.649279    14.204582    14.560593    -42.055267    -6.009228    -50.636974    -53.612938    26.204811    -51.301453    8.507677    -28.070396    -13.452738    10.007032    -28.167908    18.294954    64.813263    -32.002579    -63.330151    23.390293    -26.642950    -56.049686    -31.575260    -5.995341    -25.001041    0.717154    -0.688236    67.514198    -11.923646    41.104992    -28.909122    13.654209    0.000000    0.000000    0.000000    -5.681541    -45.086506    -13.520239    6.351067    21.454727    6.527433    20.040876    -9.653506    -26.354776    0.000000    0.000000    0.000000    
-36.508499    72.975227    -24.236507    -0.048940    -3.374533    171.350922    4.789469    -5.309477    -1.230171    2.424474    27.208317    -2.039182    -8.737647    15.300404    -1.002006    4.741386    -19.824118    0.507061    16.859179    -15.500673    -22.759619    14.208090    14.598616    -42.027313    -5.944175    -50.655697    -53.590363    26.248814    -51.289505    8.553729    -27.961626    -13.435969    10.122944    -28.941519    18.966312    64.762756    -32.838249    -63.766617    22.849360    -27.133581    -56.424973    -32.092594    -5.930858    -24.810589    1.018679    -0.730892    67.812096    -11.856678    41.108971    -29.218048    13.418337    0.000000    0.000000    0.000000    -5.407519    -44.920586    -13.468004    6.305038    20.814939    6.108242    19.875700    -9.350200    -25.921864    0.000000    0.000000    0.000000    
-36.455181    72.882088    -24.710375    -0.131143    -3.337365    171.542496    4.769794    -5.441811    -1.328875    2.419579    27.435701    -2.146448    -8.697029    15.059097    -1.000736    4.542283    -19.633080    0.458634    16.935839    -15.456059    -22.633156    14.130116    14.407339    -42.022453    -6.015335    -50.638760    -53.655769    26.342804    -51.282120    8.630150    -28.118076    -13.480458    10.018335    -28.132467    18.391312    64.777344    -31.943653    -63.644341    23.471546    -26.013538    -56.600040    -31.130562    -5.779882    -24.523273    1.490910    -0.805035    68.120270    -11.917052    41.177185    -29.429447    13.110522    0.000000    0.000000    0.000000    -5.286350    -45.060265    -13.380003    6.483858    21.300230    6.280264    19.592772    -9.466599    -25.840090    0.000000    0.000000    0.000000    
-36.375515    72.794960    -25.176519    -0.168599    -3.369907    171.772278    4.768005    -5.522330    -1.414394    2.402067    27.414196    -2.230457    -8.755841    15.127274    -1.003892    4.635426    -19.659218    0.480167    16.850830    -15.596519    -22.608986    14.148377    14.514329    -42.205624    -6.054389    -50.663673    -53.611671    26.318058    -51.320770    8.614526    -28.083624    -13.610010    10.062651    -28.314665    18.625990    64.899307    -32.335308    -63.571632    23.132242    -26.449717    -56.404163    -31.434513    -5.513619    -24.377192    1.787593    -1.485071    68.487648    -11.059864    40.681164    -29.808260    12.378514    0.000000    0.000000    0.000000    -5.057586    -45.061478    -13.591297    6.564982    21.533043    6.613427    19.521494    -9.662848    -25.832891    0.000000    0.000000    0.000000    
